<svg width="40" height="40" viewBox="0 0 40 40" fill="none" xmlns="http://www.w3.org/2000/svg">
<path d="M20 15V21.6667M20 28.3333H20.0167M17.15 6.43334L3.03337 30C2.74231 30.504 2.58831 31.0755 2.58668 31.6575C2.58505 32.2396 2.73585 32.8119 3.02408 33.3175C3.31231 33.8232 3.72791 34.2446 4.22955 34.5398C4.73118 34.8349 5.30137 34.9936 5.88337 35H34.1167C34.6987 34.9936 35.2689 34.8349 35.7705 34.5398C36.2722 34.2446 36.6878 33.8232 36.976 33.3175C37.2642 32.8119 37.415 32.2396 37.4134 31.6575C37.4118 31.0755 37.2578 30.504 36.9667 30L22.85 6.43334C22.5529 5.94352 22.1346 5.53854 21.6354 5.25748C21.1362 4.97642 20.5729 4.82877 20 4.82877C19.4271 4.82877 18.8639 4.97642 18.3647 5.25748C17.8655 5.53854 17.4472 5.94352 17.15 6.43334Z" stroke="#592E83" stroke-width="3.5" stroke-linecap="round" stroke-linejoin="round"/>
</svg>
