<?xml version="1.0" standalone="no"?>
<!DOCTYPE svg PUBLIC "-//W3C//DTD SVG 20010904//EN"
 "http://www.w3.org/TR/2001/REC-SVG-20010904/DTD/svg10.dtd">
<svg version="1.0" xmlns="http://www.w3.org/2000/svg"
 width="512.000000pt" height="512.000000pt" viewBox="0 0 512.000000 512.000000"
 preserveAspectRatio="xMidYMid meet">

<g transform="translate(0.000000,512.000000) scale(0.100000,-0.100000)"
fill="#000000" stroke="none">
<path d="M3199 4020 c-20 -10 -98 -84 -173 -164 l-138 -146 -840 -2 -840 -3
-19 -24 c-25 -30 -24 -62 2 -95 l20 -26 1790 0 c1342 0 1796 -3 1812 -12 35
-18 46 -40 47 -90 l0 -48 -2155 0 c-1185 0 -2155 2 -2155 5 0 3 14 33 30 66
20 39 39 63 56 69 14 6 92 10 173 10 141 0 148 1 169 23 27 29 28 67 3 98 -19
24 -22 24 -198 24 -171 0 -180 -1 -222 -25 -24 -14 -57 -41 -72 -60 -15 -19
-110 -215 -211 -435 l-183 -400 -3 -454 -3 -454 -39 -43 c-22 -23 -42 -57 -45
-76 -4 -18 -5 -113 -3 -210 3 -196 7 -207 78 -255 32 -23 38 -23 343 -23 l309
0 58 -60 c172 -179 450 -172 606 14 l38 46 1051 0 1050 0 30 -41 c17 -22 56
-58 89 -80 81 -54 149 -72 252 -67 110 6 190 44 268 128 l55 60 368 0 c363 0
370 0 413 23 26 13 57 40 75 65 30 43 30 45 33 199 4 183 -6 223 -69 276 l-39
34 0 829 0 830 -26 52 c-52 104 -120 132 -325 132 l-137 0 -4 93 c-4 110 -24
157 -87 202 l-43 30 -576 2 c-551 2 -579 2 -613 -17z m1155 -146 c12 -11 16
-36 16 -90 l0 -74 -637 0 -637 0 39 43 c22 23 60 63 85 90 l44 47 537 0 c475
0 539 -2 553 -16z m-3284 -954 l0 -340 -150 -75 -150 -75 -265 0 -265 0 0 152
0 152 84 186 c47 102 101 220 120 263 l35 77 296 0 295 0 0 -340z m290 15 l0
-325 -70 0 -70 0 0 325 0 325 70 0 70 0 0 -325z m670 0 l0 -325 -257 2 -258 3
-3 323 -2 322 260 0 260 0 0 -325z m290 0 l0 -325 -70 0 -70 0 0 325 0 325 70
0 70 0 0 -325z m650 0 l0 -325 -250 0 -250 0 0 325 0 325 250 0 250 0 0 -325z
m290 221 c0 -89 3 -107 21 -130 l20 -26 379 0 379 0 20 26 c18 23 21 41 21
130 l0 104 70 0 70 0 0 -99 c0 -96 1 -100 26 -120 33 -26 65 -27 95 -2 22 17
24 28 27 120 l4 101 234 0 234 0 0 -325 0 -325 -235 0 -235 0 0 95 c0 88 -2
98 -25 120 -30 31 -71 32 -102 3 -21 -20 -23 -30 -23 -120 l0 -98 -70 0 -70 0
0 106 c0 103 -1 106 -29 135 l-29 29 -356 0 c-239 0 -363 -4 -379 -11 -37 -17
-47 -50 -47 -159 l0 -100 -70 0 -70 0 0 325 0 325 70 0 70 0 0 -104z m690 49
l0 -55 -270 0 -270 0 0 55 0 55 270 0 270 0 0 -55z m-5 -535 l0 -55 -267 -3
-268 -2 0 60 0 60 268 -2 267 -3 0 -55z m-2722 -655 c124 -32 245 -120 338
-245 l26 -35 139 -3 c155 -4 186 3 212 48 17 29 18 30 98 30 79 0 82 -1 88
-26 14 -53 24 -54 644 -54 379 0 579 4 598 11 17 6 47 36 73 71 155 212 444
279 689 160 61 -29 179 -134 212 -187 11 -18 35 -38 52 -44 19 -7 130 -11 292
-11 191 0 265 -3 274 -12 15 -15 17 -251 2 -279 -10 -18 -25 -19 -344 -19
l-333 0 -5 84 c-4 69 -10 96 -36 148 -39 79 -120 159 -199 196 -52 24 -69 27
-168 27 -102 0 -114 -2 -165 -29 -77 -41 -115 -71 -156 -127 -48 -66 -75 -147
-76 -230 l0 -69 -994 0 -994 0 0 53 c-1 158 -89 301 -227 369 -87 43 -216 51
-305 20 -163 -58 -269 -202 -272 -369 l-1 -73 -267 0 -268 0 0 154 0 155 216
3 217 3 31 40 c97 124 203 203 321 236 75 22 212 24 288 4z"/>
</g>
</svg>
