<svg width="40" height="40" viewBox="0 0 40 40" fill="none" xmlns="http://www.w3.org/2000/svg">
<path d="M15.4167 36.6666L14.75 31.3333C14.3889 31.1944 14.0486 31.0278 13.7292 30.8333C13.4097 30.6389 13.0972 30.4305 12.7917 30.2083L7.83333 32.2916L3.25 24.375L7.54167 21.125C7.51389 20.9305 7.5 20.743 7.5 20.5625V19.4375C7.5 19.2569 7.51389 19.0694 7.54167 18.875L3.25 15.625L7.83333 7.70831L12.7917 9.79165C13.0972 9.56942 13.4167 9.36109 13.75 9.16665C14.0833 8.9722 14.4167 8.80554 14.75 8.66665L15.4167 3.33331H24.5833L25.25 8.66665C25.6111 8.80554 25.9514 8.9722 26.2708 9.16665C26.5903 9.36109 26.9028 9.56942 27.2083 9.79165L32.1667 7.70831L36.75 15.625L32.4583 18.875C32.4861 19.0694 32.5 19.2569 32.5 19.4375V20.5625C32.5 20.743 32.4722 20.9305 32.4167 21.125L36.7083 24.375L32.125 32.2916L27.2083 30.2083C26.9028 30.4305 26.5833 30.6389 26.25 30.8333C25.9167 31.0278 25.5833 31.1944 25.25 31.3333L24.5833 36.6666H15.4167ZM18.3333 33.3333H21.625L22.2083 28.9166C23.0694 28.6944 23.8681 28.368 24.6042 27.9375C25.3403 27.5069 26.0139 26.9861 26.625 26.375L30.75 28.0833L32.375 25.25L28.7917 22.5416C28.9306 22.1528 29.0278 21.743 29.0833 21.3125C29.1389 20.8819 29.1667 20.4444 29.1667 20C29.1667 19.5555 29.1389 19.118 29.0833 18.6875C29.0278 18.2569 28.9306 17.8472 28.7917 17.4583L32.375 14.75L30.75 11.9166L26.625 13.6666C26.0139 13.0278 25.3403 12.493 24.6042 12.0625C23.8681 11.6319 23.0694 11.3055 22.2083 11.0833L21.6667 6.66665H18.375L17.7917 11.0833C16.9306 11.3055 16.1319 11.6319 15.3958 12.0625C14.6597 12.493 13.9861 13.0139 13.375 13.625L9.25 11.9166L7.625 14.75L11.2083 17.4166C11.0694 17.8333 10.9722 18.25 10.9167 18.6666C10.8611 19.0833 10.8333 19.5278 10.8333 20C10.8333 20.4444 10.8611 20.875 10.9167 21.2916C10.9722 21.7083 11.0694 22.125 11.2083 22.5416L7.625 25.25L9.25 28.0833L13.375 26.3333C13.9861 26.9722 14.6597 27.5069 15.3958 27.9375C16.1319 28.368 16.9306 28.6944 17.7917 28.9166L18.3333 33.3333ZM20.0833 25.8333C21.6944 25.8333 23.0694 25.2639 24.2083 24.125C25.3472 22.9861 25.9167 21.6111 25.9167 20C25.9167 18.3889 25.3472 17.0139 24.2083 15.875C23.0694 14.7361 21.6944 14.1666 20.0833 14.1666C18.4444 14.1666 17.0625 14.7361 15.9375 15.875C14.8125 17.0139 14.25 18.3889 14.25 20C14.25 21.6111 14.8125 22.9861 15.9375 24.125C17.0625 25.2639 18.4444 25.8333 20.0833 25.8333Z" fill="#592E83"/>
</svg>
