<svg width="49" height="27" viewBox="0 0 49 27" fill="none" xmlns="http://www.w3.org/2000/svg">
<path d="M13.7812 0H35.2188C42.8176 0 49 6.05625 49 13.5C49 20.9438 42.8176 27 35.2188 27H13.7812C6.18242 27 0 20.9438 0 13.5C0 6.05625 6.18242 0 13.7812 0ZM13.7812 24C15.9012 24 17.9736 23.3842 19.7363 22.2304C21.499 21.0767 22.8728 19.4368 23.6841 17.5182C24.4954 15.5996 24.7076 13.4884 24.294 11.4516C23.8805 9.41475 22.8596 7.54383 21.3605 6.07538C19.8615 4.60693 17.9516 3.6069 15.8724 3.20176C13.7931 2.79661 11.638 3.00455 9.67936 3.79927C7.72077 4.59399 6.04673 5.9398 4.86893 7.66651C3.69114 9.39323 3.0625 11.4233 3.0625 13.5C3.06554 16.2839 4.19581 18.9528 6.20531 20.9213C8.21481 22.8898 10.9394 23.997 13.7812 24Z" fill="white"/>
<path d="M18.6312 20.5L17.4125 15.2313L21.5 11.6875L16.1 11.2188L14 6.25L11.9 11.2188L6.5 11.6875L10.5875 15.2313L9.36875 20.5L14 17.7063L18.6312 20.5Z" fill="white"/>
</svg>
