<svg width="43" height="43" viewBox="0 0 43 43" fill="none" xmlns="http://www.w3.org/2000/svg">
<rect width="43" height="43" rx="21.5" fill="#694D75" fill-opacity="0.3"/>
<path d="M21.4999 39.4167C21.0819 39.4167 20.7235 39.2972 20.4249 39.0583C20.1263 38.8194 19.9024 38.5059 19.753 38.1177C19.1857 36.4455 18.469 34.8778 17.603 33.4146C16.7669 31.9514 15.5874 30.2344 14.0645 28.2635C12.5416 26.2927 11.3023 24.4115 10.3468 22.6198C9.4211 20.8281 8.95825 18.6632 8.95825 16.125C8.95825 12.6312 10.1676 9.67499 12.5864 7.25624C15.035 4.80763 18.0062 3.58333 21.4999 3.58333C24.9937 3.58333 27.9499 4.80763 30.3687 7.25624C32.8173 9.67499 34.0416 12.6312 34.0416 16.125C34.0416 18.8424 33.519 21.1118 32.4739 22.9333C31.4586 24.725 30.2791 26.5017 28.9353 28.2635C27.3228 30.4135 26.0985 32.2052 25.2624 33.6385C24.4562 35.042 23.7843 36.5351 23.2468 38.1177C23.0975 38.5358 22.8586 38.8642 22.5301 39.1031C22.2315 39.3121 21.8881 39.4167 21.4999 39.4167ZM21.4999 20.6042C22.7541 20.6042 23.8142 20.1712 24.6801 19.3052C25.5461 18.4392 25.9791 17.3792 25.9791 16.125C25.9791 14.8708 25.5461 13.8108 24.6801 12.9448C23.8142 12.0788 22.7541 11.6458 21.4999 11.6458C20.2458 11.6458 19.1857 12.0788 18.3197 12.9448C17.4537 13.8108 17.0208 14.8708 17.0208 16.125C17.0208 17.3792 17.4537 18.4392 18.3197 19.3052C19.1857 20.1712 20.2458 20.6042 21.4999 20.6042Z" fill="#694D75"/>
</svg>
