<svg width="49" height="31" viewBox="0 0 49 31" fill="none" xmlns="http://www.w3.org/2000/svg">
<path fill-rule="evenodd" clip-rule="evenodd" d="M11.9432 0.443115C5.18112 1.99042 0.3489 7.80714 0.0234917 14.7911C-0.112899 17.7201 0.332674 19.8173 1.67378 22.5583C4.29437 27.9143 10.1598 31.3462 15.9727 30.9242C18.317 30.754 20.0453 30.2829 22.0105 29.279C22.8547 28.8476 23.5858 28.4543 23.6353 28.4048C23.6847 28.3555 23.1961 27.5288 22.5495 26.5676L21.3739 24.8203L20.2668 25.4289C16.0492 27.7474 10.8784 26.9316 7.40438 23.3993C5.81681 21.7851 5.01316 20.3804 4.48448 18.2962C2.63049 10.9884 8.41569 3.91044 15.8396 4.40388C17.6648 4.52528 19.6745 5.14886 20.9202 5.98053L21.5844 6.42402L20.5461 8.57654C18.8978 11.9946 18.474 15.0919 19.1704 18.634C19.5234 20.4308 21.0509 24.0563 21.4548 24.0563C21.5824 24.0563 22.3764 23.5879 23.2191 23.0154L24.7514 21.9748L26.2682 23.0049C27.9821 24.1692 27.8575 24.2122 28.8951 22.0964C29.8396 20.171 30.2851 18.0673 30.2825 15.5448C30.2794 12.4587 29.665 10.1785 28.1389 7.58943L27.3602 6.26858L27.8648 5.87324C28.1424 5.65575 29.0109 5.21024 29.7948 4.88344C31.5291 4.15996 34.5749 3.91044 36.4006 4.34184C40.2037 5.24092 43.2315 8.0607 44.5171 11.9014C44.9077 13.0679 45.0246 13.9068 45.0246 15.5448C45.0246 17.1828 44.9077 18.0216 44.5171 19.1882C42.9462 23.8809 38.7464 26.9784 33.976 26.9628C31.8909 26.9558 30.734 26.685 28.9239 25.7799C28.1367 25.3863 27.4297 25.0345 27.3527 24.9979C27.276 24.9617 26.7131 25.6343 26.1015 26.4931L24.99 28.054L26.0219 28.7284C30.6086 31.7265 36.9819 31.7599 41.7347 28.8107C43.5418 27.6894 45.7749 25.3682 46.8476 23.4963C51.7174 14.9974 48.0006 4.37566 38.9547 0.941262C37.4781 0.380622 36.7016 0.232119 34.7819 0.1423C31.2309 -0.0236744 28.3364 0.739002 25.7498 2.52216C24.6313 3.29313 24.2684 3.37444 23.9105 2.93408C23.5213 2.45497 20.5718 1.03422 19.1599 0.645599C17.2418 0.117885 13.7884 0.0208987 11.9432 0.443115ZM23.8182 10.7609C22.3854 14.0255 22.4343 17.5808 23.9542 20.6353L24.4752 21.6827L24.8512 20.9402C25.9386 18.7922 26.3976 16.202 26.0662 14.0835C25.8253 12.5427 25.1663 10.5281 24.6822 9.8517C24.4217 9.48772 24.3385 9.57508 23.8182 10.7609Z" fill="black"/>
<path fill-rule="evenodd" clip-rule="evenodd" d="M30.0246 0.373229C27.2846 0.97315 24.2279 3.22501 22.4974 5.26412C19.7459 8.5062 18.2901 13.3912 18.8564 17.4806C19.2656 20.4351 21.1373 24.6722 21.6177 24.1659C22.3383 23.9128 24.8173 22.0342 24.7403 21.8879C23.5229 19.5808 22.822 17.7441 22.8187 15.5601C22.992 12.285 23.7795 10.2447 25.991 7.47636C28.2755 5.13237 30.9042 4.13236 34.1079 4.16994C42.5875 4.26925 47.1754 13.4409 43.7157 20.8754C40.7926 26.415 34.3215 28.5585 28.8236 25.6846C28.0928 25.3028 27.3824 24.9253 27.283 25.0025C27.1364 24.9284 25.0787 27.7278 25.0787 28.0014C25.0787 28.2893 26.7805 29.2742 28.4079 29.928C36.7608 33.2835 46.0983 28.4707 48.5462 19.5484C49.1029 17.5191 49.1563 13.8223 48.6574 11.8539C47.7944 8.44849 45.3747 4.79272 42.755 2.90437C39.062 0.242751 34.2795 -0.558417 30.0246 0.373229Z" fill="white"/>
</svg>
