<svg width="150" height="150" viewBox="0 0 150 150" fill="none" xmlns="http://www.w3.org/2000/svg">
<rect x="1" y="1" width="148" height="148" rx="74" fill="#592E83" fill-opacity="0.13"/>
<rect x="1" y="1" width="148" height="148" rx="74" stroke="#592E83" stroke-width="2" stroke-linecap="round" stroke-linejoin="round"/>
<path d="M125 131.25V118.75C125 112.12 122.366 105.761 117.678 101.072C112.989 96.3839 106.63 93.75 100 93.75H50C43.3696 93.75 37.0107 96.3839 32.3223 101.072C27.6339 105.761 25 112.12 25 118.75V131.25M100 43.75C100 57.5571 88.8071 68.75 75 68.75C61.1929 68.75 50 57.5571 50 43.75C50 29.9429 61.1929 18.75 75 18.75C88.8071 18.75 100 29.9429 100 43.75Z" stroke="#592E83" stroke-width="4" stroke-linecap="round" stroke-linejoin="round"/>
</svg>
