<svg width="48" height="48" viewBox="0 0 48 48" fill="none" xmlns="http://www.w3.org/2000/svg">
<g filter="url(#filter0_d_33_68)">
<path d="M9 5H14V10H9V5Z" fill="#592E83"/>
<path d="M19 0V15H4V0H19ZM16.5 2.5H6.5V12.5H16.5V2.5ZM14 30H9V35H14V30Z" fill="#592E83"/>
<path d="M19 25V40H4V25H19ZM6.5 27.5V37.5H16.5V27.5H6.5ZM34 5H39V10H34V5Z" fill="#592E83"/>
<path d="M29 0V15H44V0H29ZM41.5 2.5V12.5H31.5V2.5H41.5ZM24 2.5V0H26.5V5H24V10H21.5V2.5H24ZM24 15V10H26.5V15H24ZM19 20V17.5H21.5V15H24V20H26.5V17.5H39V20H29V22.5H21.5V20H19ZM19 20V22.5H9V20H6.5V22.5H4V17.5H11.5V20H19ZM44 22.5H41.5V17.5H44V22.5ZM41.5 22.5H39V27.5H44V25H41.5V22.5ZM31.5 22.5H36.5V25H34V27.5H31.5V22.5ZM36.5 30V27.5H34V30H31.5V32.5H26.5V35H34V30H36.5ZM36.5 30H44V32.5H39V35H36.5V30ZM26.5 27.5V30H29V25H21.5V27.5H26.5Z" fill="#592E83"/>
<path d="M21.5 30H24V37.5H34V40H21.5V30ZM44 35V40H36.5V37.5H41.5V35H44Z" fill="#592E83"/>
</g>
<defs>
<filter id="filter0_d_33_68" x="0" y="0" width="48" height="48" filterUnits="userSpaceOnUse" color-interpolation-filters="sRGB">
<feFlood flood-opacity="0" result="BackgroundImageFix"/>
<feColorMatrix in="SourceAlpha" type="matrix" values="0 0 0 0 0 0 0 0 0 0 0 0 0 0 0 0 0 0 127 0" result="hardAlpha"/>
<feOffset dy="4"/>
<feGaussianBlur stdDeviation="2"/>
<feComposite in2="hardAlpha" operator="out"/>
<feColorMatrix type="matrix" values="0 0 0 0 0 0 0 0 0 0 0 0 0 0 0 0 0 0 0.3 0"/>
<feBlend mode="normal" in2="BackgroundImageFix" result="effect1_dropShadow_33_68"/>
<feBlend mode="normal" in="SourceGraphic" in2="effect1_dropShadow_33_68" result="shape"/>
</filter>
</defs>
</svg>
