<svg width="333" height="48" viewBox="0 0 333 48" fill="none" xmlns="http://www.w3.org/2000/svg">
<rect width="333" height="46" rx="23" fill="#00A1C5"/>
<path d="M278.347 26.9784C277.884 27.4409 277.884 28.1907 278.347 28.6532C278.809 29.1156 279.559 29.1156 280.022 28.6532L285.5 23.1747L290.978 28.6532C291.441 29.1156 292.191 29.1156 292.653 28.6532C293.116 28.1907 293.116 27.4409 292.653 26.9784L287.175 21.5L292.653 16.0216C293.116 15.5591 293.116 14.8093 292.653 14.3468C292.191 13.8844 291.441 13.8844 290.978 14.3468L285.5 19.8253L280.022 14.3468C279.559 13.8844 278.809 13.8844 278.347 14.3468C277.884 14.8093 277.884 15.5591 278.347 16.0216L283.825 21.5L278.347 26.9784Z" fill="white"/>
<path d="M145.043 28.14C144.109 28.14 143.269 27.98 142.523 27.66C141.776 27.3267 141.189 26.86 140.763 26.26C140.336 25.66 140.123 24.96 140.123 24.16H142.563C142.616 24.76 142.849 25.2533 143.263 25.64C143.689 26.0267 144.283 26.22 145.043 26.22C145.829 26.22 146.443 26.0333 146.883 25.66C147.323 25.2733 147.543 24.78 147.543 24.18C147.543 23.7133 147.403 23.3333 147.123 23.04C146.856 22.7467 146.516 22.52 146.103 22.36C145.703 22.2 145.143 22.0267 144.423 21.84C143.516 21.6 142.776 21.36 142.203 21.12C141.643 20.8667 141.163 20.48 140.763 19.96C140.363 19.44 140.163 18.7467 140.163 17.88C140.163 17.08 140.363 16.38 140.763 15.78C141.163 15.18 141.723 14.72 142.443 14.4C143.163 14.08 143.996 13.92 144.943 13.92C146.289 13.92 147.389 14.26 148.243 14.94C149.109 15.6067 149.589 16.5267 149.683 17.7H147.163C147.123 17.1933 146.883 16.76 146.443 16.4C146.003 16.04 145.423 15.86 144.703 15.86C144.049 15.86 143.516 16.0267 143.103 16.36C142.689 16.6933 142.483 17.1733 142.483 17.8C142.483 18.2267 142.609 18.58 142.863 18.86C143.129 19.1267 143.463 19.34 143.863 19.5C144.263 19.66 144.809 19.8333 145.503 20.02C146.423 20.2733 147.169 20.5267 147.743 20.78C148.329 21.0333 148.823 21.4267 149.223 21.96C149.636 22.48 149.843 23.18 149.843 24.06C149.843 24.7667 149.649 25.4333 149.263 26.06C148.889 26.6867 148.336 27.1933 147.603 27.58C146.883 27.9533 146.029 28.14 145.043 28.14ZM151.073 22.44C151.073 21.3333 151.299 20.3533 151.753 19.5C152.219 18.6467 152.846 17.9867 153.633 17.52C154.433 17.04 155.313 16.8 156.273 16.8C157.139 16.8 157.893 16.9733 158.533 17.32C159.186 17.6533 159.706 18.0733 160.093 18.58V16.98H162.393V28H160.093V26.36C159.706 26.88 159.179 27.3133 158.513 27.66C157.846 28.0067 157.086 28.18 156.233 28.18C155.286 28.18 154.419 27.94 153.633 27.46C152.846 26.9667 152.219 26.2867 151.753 25.42C151.299 24.54 151.073 23.5467 151.073 22.44ZM160.093 22.48C160.093 21.72 159.933 21.06 159.613 20.5C159.306 19.94 158.899 19.5133 158.393 19.22C157.886 18.9267 157.339 18.78 156.753 18.78C156.166 18.78 155.619 18.9267 155.113 19.22C154.606 19.5 154.193 19.92 153.873 20.48C153.566 21.0267 153.413 21.68 153.413 22.44C153.413 23.2 153.566 23.8667 153.873 24.44C154.193 25.0133 154.606 25.4533 155.113 25.76C155.633 26.0533 156.179 26.2 156.753 26.2C157.339 26.2 157.886 26.0533 158.393 25.76C158.899 25.4667 159.306 25.04 159.613 24.48C159.933 23.9067 160.093 23.24 160.093 22.48ZM166.968 13.2V28H164.688V13.2H166.968ZM173.521 25.96L176.641 16.98H179.061L174.861 28H172.141L167.961 16.98H170.401L173.521 25.96ZM184.864 28.18C183.824 28.18 182.884 27.9467 182.044 27.48C181.204 27 180.544 26.3333 180.064 25.48C179.584 24.6133 179.344 23.6133 179.344 22.48C179.344 21.36 179.591 20.3667 180.084 19.5C180.578 18.6333 181.251 17.9667 182.104 17.5C182.958 17.0333 183.911 16.8 184.964 16.8C186.018 16.8 186.971 17.0333 187.824 17.5C188.678 17.9667 189.351 18.6333 189.844 19.5C190.338 20.3667 190.584 21.36 190.584 22.48C190.584 23.6 190.331 24.5933 189.824 25.46C189.318 26.3267 188.624 27 187.744 27.48C186.878 27.9467 185.918 28.18 184.864 28.18ZM184.864 26.2C185.451 26.2 185.998 26.06 186.504 25.78C187.024 25.5 187.444 25.08 187.764 24.52C188.084 23.96 188.244 23.28 188.244 22.48C188.244 21.68 188.091 21.0067 187.784 20.46C187.478 19.9 187.071 19.48 186.564 19.2C186.058 18.92 185.511 18.78 184.924 18.78C184.338 18.78 183.791 18.92 183.284 19.2C182.791 19.48 182.398 19.9 182.104 20.46C181.811 21.0067 181.664 21.68 181.664 22.48C181.664 23.6667 181.964 24.5867 182.564 25.24C183.178 25.88 183.944 26.2 184.864 26.2ZM199.494 14.1L199.234 23.8H197.334L197.074 14.1H199.494ZM198.354 28.14C197.94 28.14 197.594 28 197.314 27.72C197.034 27.44 196.894 27.0933 196.894 26.68C196.894 26.2667 197.034 25.92 197.314 25.64C197.594 25.36 197.94 25.22 198.354 25.22C198.754 25.22 199.094 25.36 199.374 25.64C199.654 25.92 199.794 26.2667 199.794 26.68C199.794 27.0933 199.654 27.44 199.374 27.72C199.094 28 198.754 28.14 198.354 28.14Z" fill="white"/>
</svg>
