<svg width="333" height="48" viewBox="0 0 333 48" fill="none" xmlns="http://www.w3.org/2000/svg">
<rect width="333" height="46" rx="23" fill="#4EC33D"/>
<path fill-rule="evenodd" clip-rule="evenodd" d="M307.518 13.4768C308.578 14.2888 308.78 15.8049 307.97 16.8661L295.96 32.6133C295.537 33.1686 294.895 33.5136 294.199 33.5599C293.503 33.6062 292.822 33.3492 292.329 32.855L284.706 25.2119C283.763 24.2666 283.763 22.7368 284.706 21.7915C285.652 20.8428 287.189 20.8428 288.135 21.7915L293.796 27.4671L304.121 13.9298C304.933 12.8648 306.456 12.6618 307.518 13.4768Z" fill="white"/>
<path d="M103.74 21.02C103.74 19.66 104.053 18.44 104.68 17.36C105.32 16.28 106.18 15.44 107.26 14.84C108.353 14.2267 109.547 13.92 110.84 13.92C112.32 13.92 113.633 14.2867 114.78 15.02C115.94 15.74 116.78 16.7667 117.3 18.1H114.56C114.2 17.3667 113.7 16.82 113.06 16.46C112.42 16.1 111.68 15.92 110.84 15.92C109.92 15.92 109.1 16.1267 108.38 16.54C107.66 16.9533 107.093 17.5467 106.68 18.32C106.28 19.0933 106.08 19.9933 106.08 21.02C106.08 22.0467 106.28 22.9467 106.68 23.72C107.093 24.4933 107.66 25.0933 108.38 25.52C109.1 25.9333 109.92 26.14 110.84 26.14C111.68 26.14 112.42 25.96 113.06 25.6C113.7 25.24 114.2 24.6933 114.56 23.96H117.3C116.78 25.2933 115.94 26.32 114.78 27.04C113.633 27.76 112.32 28.12 110.84 28.12C109.533 28.12 108.34 27.82 107.26 27.22C106.18 26.6067 105.32 25.76 104.68 24.68C104.053 23.6 103.74 22.38 103.74 21.02ZM124.049 28.18C123.009 28.18 122.069 27.9467 121.229 27.48C120.389 27 119.729 26.3333 119.249 25.48C118.769 24.6133 118.529 23.6133 118.529 22.48C118.529 21.36 118.775 20.3667 119.269 19.5C119.762 18.6333 120.435 17.9667 121.289 17.5C122.142 17.0333 123.095 16.8 124.149 16.8C125.202 16.8 126.155 17.0333 127.009 17.5C127.862 17.9667 128.535 18.6333 129.029 19.5C129.522 20.3667 129.769 21.36 129.769 22.48C129.769 23.6 129.515 24.5933 129.009 25.46C128.502 26.3267 127.809 27 126.929 27.48C126.062 27.9467 125.102 28.18 124.049 28.18ZM124.049 26.2C124.635 26.2 125.182 26.06 125.689 25.78C126.209 25.5 126.629 25.08 126.949 24.52C127.269 23.96 127.429 23.28 127.429 22.48C127.429 21.68 127.275 21.0067 126.969 20.46C126.662 19.9 126.255 19.48 125.749 19.2C125.242 18.92 124.695 18.78 124.109 18.78C123.522 18.78 122.975 18.92 122.469 19.2C121.975 19.48 121.582 19.9 121.289 20.46C120.995 21.0067 120.849 21.68 120.849 22.48C120.849 23.6667 121.149 24.5867 121.749 25.24C122.362 25.88 123.129 26.2 124.049 26.2ZM136.883 16.8C137.749 16.8 138.523 16.98 139.203 17.34C139.896 17.7 140.436 18.2333 140.823 18.94C141.209 19.6467 141.403 20.5 141.403 21.5V28H139.143V21.84C139.143 20.8533 138.896 20.1 138.403 19.58C137.909 19.0467 137.236 18.78 136.383 18.78C135.529 18.78 134.849 19.0467 134.343 19.58C133.849 20.1 133.603 20.8533 133.603 21.84V28H131.323V16.98H133.603V18.24C133.976 17.7867 134.449 17.4333 135.023 17.18C135.609 16.9267 136.229 16.8 136.883 16.8ZM142.851 22.48C142.851 21.3467 143.078 20.3533 143.531 19.5C143.998 18.6333 144.638 17.9667 145.451 17.5C146.264 17.0333 147.198 16.8 148.251 16.8C149.584 16.8 150.684 17.12 151.551 17.76C152.431 18.3867 153.024 19.2867 153.331 20.46H150.871C150.671 19.9133 150.351 19.4867 149.911 19.18C149.471 18.8733 148.918 18.72 148.251 18.72C147.318 18.72 146.571 19.0533 146.011 19.72C145.464 20.3733 145.191 21.2933 145.191 22.48C145.191 23.6667 145.464 24.5933 146.011 25.26C146.571 25.9267 147.318 26.26 148.251 26.26C149.571 26.26 150.444 25.68 150.871 24.52H153.331C153.011 25.64 152.411 26.5333 151.531 27.2C150.651 27.8533 149.558 28.18 148.251 28.18C147.198 28.18 146.264 27.9467 145.451 27.48C144.638 27 143.998 26.3333 143.531 25.48C143.078 24.6133 142.851 23.6133 142.851 22.48ZM157.183 13.2V28H154.903V13.2H157.183ZM169.457 16.98V28H167.177V26.7C166.817 27.1533 166.343 27.5133 165.757 27.78C165.183 28.0333 164.57 28.16 163.917 28.16C163.05 28.16 162.27 27.98 161.577 27.62C160.897 27.26 160.357 26.7267 159.957 26.02C159.57 25.3133 159.377 24.46 159.377 23.46V16.98H161.637V23.12C161.637 24.1067 161.883 24.8667 162.377 25.4C162.87 25.92 163.543 26.18 164.397 26.18C165.25 26.18 165.923 25.92 166.417 25.4C166.923 24.8667 167.177 24.1067 167.177 23.12V16.98H169.457ZM172.925 15.52C172.512 15.52 172.165 15.38 171.885 15.1C171.605 14.82 171.465 14.4733 171.465 14.06C171.465 13.6467 171.605 13.3 171.885 13.02C172.165 12.74 172.512 12.6 172.925 12.6C173.325 12.6 173.665 12.74 173.945 13.02C174.225 13.3 174.365 13.6467 174.365 14.06C174.365 14.4733 174.225 14.82 173.945 15.1C173.665 15.38 173.325 15.52 172.925 15.52ZM174.045 16.98V28H171.765V16.98H174.045ZM175.578 22.44C175.578 21.3333 175.805 20.3533 176.258 19.5C176.725 18.6467 177.352 17.9867 178.138 17.52C178.938 17.04 179.825 16.8 180.798 16.8C181.518 16.8 182.225 16.96 182.918 17.28C183.625 17.5867 184.185 18 184.598 18.52V13.2H186.898V28H184.598V26.34C184.225 26.8733 183.705 27.3133 183.038 27.66C182.385 28.0067 181.632 28.18 180.778 28.18C179.818 28.18 178.938 27.94 178.138 27.46C177.352 26.9667 176.725 26.2867 176.258 25.42C175.805 24.54 175.578 23.5467 175.578 22.44ZM184.598 22.48C184.598 21.72 184.438 21.06 184.118 20.5C183.812 19.94 183.405 19.5133 182.898 19.22C182.392 18.9267 181.845 18.78 181.258 18.78C180.672 18.78 180.125 18.9267 179.618 19.22C179.112 19.5 178.698 19.92 178.378 20.48C178.072 21.0267 177.918 21.68 177.918 22.44C177.918 23.2 178.072 23.8667 178.378 24.44C178.698 25.0133 179.112 25.4533 179.618 25.76C180.138 26.0533 180.685 26.2 181.258 26.2C181.845 26.2 182.392 26.0533 182.898 25.76C183.405 25.4667 183.812 25.04 184.118 24.48C184.438 23.9067 184.598 23.24 184.598 22.48ZM193.973 28.18C192.933 28.18 191.993 27.9467 191.153 27.48C190.313 27 189.653 26.3333 189.173 25.48C188.693 24.6133 188.453 23.6133 188.453 22.48C188.453 21.36 188.7 20.3667 189.193 19.5C189.686 18.6333 190.36 17.9667 191.213 17.5C192.066 17.0333 193.02 16.8 194.073 16.8C195.126 16.8 196.08 17.0333 196.933 17.5C197.786 17.9667 198.46 18.6333 198.953 19.5C199.446 20.3667 199.693 21.36 199.693 22.48C199.693 23.6 199.44 24.5933 198.933 25.46C198.426 26.3267 197.733 27 196.853 27.48C195.986 27.9467 195.026 28.18 193.973 28.18ZM193.973 26.2C194.56 26.2 195.106 26.06 195.613 25.78C196.133 25.5 196.553 25.08 196.873 24.52C197.193 23.96 197.353 23.28 197.353 22.48C197.353 21.68 197.2 21.0067 196.893 20.46C196.586 19.9 196.18 19.48 195.673 19.2C195.166 18.92 194.62 18.78 194.033 18.78C193.446 18.78 192.9 18.92 192.393 19.2C191.9 19.48 191.506 19.9 191.213 20.46C190.92 21.0067 190.773 21.68 190.773 22.48C190.773 23.6667 191.073 24.5867 191.673 25.24C192.286 25.88 193.053 26.2 193.973 26.2ZM204.107 14.1L203.847 23.8H201.947L201.687 14.1H204.107ZM202.967 28.14C202.554 28.14 202.207 28 201.927 27.72C201.647 27.44 201.507 27.0933 201.507 26.68C201.507 26.2667 201.647 25.92 201.927 25.64C202.207 25.36 202.554 25.22 202.967 25.22C203.367 25.22 203.707 25.36 203.987 25.64C204.267 25.92 204.407 26.2667 204.407 26.68C204.407 27.0933 204.267 27.44 203.987 27.72C203.707 28 203.367 28.14 202.967 28.14Z" fill="white"/>
</svg>
