 <svg width="127" height="121" viewBox="0 0 127 121" fill="none" xmlns="http://www.w3.org/2000/svg">
            <path fill-rule="evenodd" clip-rule="evenodd" d="M30.9549 1.12928C13.4286 5.0724 0.904292 19.8957 0.0608866 37.6934C-0.292616 45.1578 0.862236 50.5023 4.33816 57.4873C11.1303 71.1364 26.3326 79.8823 41.3985 78.8069C47.4746 78.3731 51.9542 77.1727 57.0476 74.6143C59.2356 73.5149 61.1305 72.5126 61.2589 72.3864C61.3868 72.2609 60.1205 70.154 58.4445 67.7047L55.3977 63.2518L52.5282 64.8027C41.5969 70.7111 28.195 68.6323 19.191 59.6306C15.0762 55.5168 12.9933 51.9373 11.623 46.626C6.81779 28.0028 21.8121 9.96536 41.0536 11.2228C45.7844 11.5322 50.9931 13.1213 54.2218 15.2407L55.9433 16.3709L53.2523 21.8564C48.9801 30.5669 47.8815 38.46 49.6865 47.4867C50.6015 52.0657 54.5606 61.3048 55.6074 61.3048C55.9382 61.3048 57.9961 60.1113 60.1802 58.6523L64.1517 56.0003L68.0829 58.6255C72.525 61.5925 72.2022 61.7021 74.8915 56.3103C77.3393 51.4036 78.4942 46.0426 78.4873 39.6142C78.4794 31.7496 76.8869 25.9388 72.9313 19.3409L70.9132 15.9748L72.2209 14.9673C72.9404 14.4131 75.1916 13.2777 77.2234 12.4449C81.7183 10.6012 89.6124 9.96536 94.3444 11.0647C104.202 13.3559 112.049 20.5418 115.381 30.3294C116.393 33.3022 116.696 35.4399 116.696 39.6142C116.696 43.7885 116.393 45.9262 115.381 48.8989C111.31 60.8579 100.424 68.7515 88.0603 68.7116C82.6561 68.6939 79.6575 68.0038 74.966 65.6972C72.9256 64.6943 71.0933 63.7975 70.8939 63.7045C70.6949 63.612 69.236 65.3261 67.6509 67.5146L64.7701 71.4926L67.4446 73.2113C79.3325 80.8515 95.851 80.9365 108.17 73.4207C112.853 70.5633 118.641 64.648 121.421 59.8778C134.043 38.2191 124.41 11.1509 100.964 2.39875C97.1372 0.970019 95.1247 0.591576 90.1489 0.362683C80.9454 -0.0602844 73.4434 1.88331 66.7393 6.4275C63.8403 8.39221 62.8997 8.59942 61.9722 7.47721C60.9634 6.25626 53.3187 2.63563 49.6592 1.64528C44.688 0.300464 35.7374 0.0533052 30.9549 1.12928ZM61.7329 27.4229C58.0194 35.7424 58.1462 44.8028 62.0853 52.5869L63.4356 55.256L64.4103 53.3638C67.2287 47.8897 68.4182 41.2889 67.5594 35.8902C66.9348 31.9637 65.227 26.8298 63.9721 25.106C63.297 24.1784 63.0816 24.401 61.7329 27.4229Z" fill="black"/>
            <path d="M22.16 102.408C23.104 102.584 23.88 103.056 24.488 103.824C25.096 104.592 25.4 105.472 25.4 106.464C25.4 107.36 25.176 108.152 24.728 108.84C24.296 109.512 23.664 110.04 22.832 110.424C22 110.808 21.016 111 19.88 111H12.656V94.248H19.568C20.704 94.248 21.68 94.432 22.496 94.8C23.328 95.168 23.952 95.68 24.368 96.336C24.8 96.992 25.016 97.736 25.016 98.568C25.016 99.544 24.752 100.36 24.224 101.016C23.712 101.672 23.024 102.136 22.16 102.408ZM16.016 101.16H19.088C19.888 101.16 20.504 100.984 20.936 100.632C21.368 100.264 21.584 99.744 21.584 99.072C21.584 98.4 21.368 97.88 20.936 97.512C20.504 97.144 19.888 96.96 19.088 96.96H16.016V101.16ZM19.4 108.264C20.216 108.264 20.848 108.072 21.296 107.688C21.76 107.304 21.992 106.76 21.992 106.056C21.992 105.336 21.752 104.776 21.272 104.376C20.792 103.96 20.144 103.752 19.328 103.752H16.016V108.264H19.4ZM40.6299 97.704V111H37.2459V109.32C36.8139 109.896 36.2459 110.352 35.5419 110.688C34.8539 111.008 34.1019 111.168 33.2859 111.168C32.2459 111.168 31.3259 110.952 30.5259 110.52C29.7259 110.072 29.0939 109.424 28.6299 108.576C28.1819 107.712 27.9579 106.688 27.9579 105.504V97.704H31.3179V105.024C31.3179 106.08 31.5819 106.896 32.1099 107.472C32.6379 108.032 33.3579 108.312 34.2699 108.312C35.1979 108.312 35.9259 108.032 36.4539 107.472C36.9819 106.896 37.2459 106.08 37.2459 105.024V97.704H40.6299ZM49.0331 111.216C47.9451 111.216 46.9691 111.024 46.1051 110.64C45.2411 110.24 44.5531 109.704 44.0411 109.032C43.5451 108.36 43.2731 107.616 43.2251 106.8H46.6091C46.6731 107.312 46.9211 107.736 47.3531 108.072C47.8011 108.408 48.3531 108.576 49.0091 108.576C49.6491 108.576 50.1451 108.448 50.4971 108.192C50.8651 107.936 51.0491 107.608 51.0491 107.208C51.0491 106.776 50.8251 106.456 50.3771 106.248C49.9451 106.024 49.2491 105.784 48.2891 105.528C47.2971 105.288 46.4811 105.04 45.8411 104.784C45.2171 104.528 44.6731 104.136 44.2091 103.608C43.7611 103.08 43.5371 102.368 43.5371 101.472C43.5371 100.736 43.7451 100.064 44.1611 99.456C44.5931 98.848 45.2011 98.368 45.9851 98.016C46.7851 97.664 47.7211 97.488 48.7931 97.488C50.3771 97.488 51.6411 97.888 52.5851 98.688C53.5291 99.472 54.0491 100.536 54.1451 101.88H50.9291C50.8811 101.352 50.6571 100.936 50.2571 100.632C49.8731 100.312 49.3531 100.152 48.6971 100.152C48.0891 100.152 47.6171 100.264 47.2811 100.488C46.9611 100.712 46.8011 101.024 46.8011 101.424C46.8011 101.872 47.0251 102.216 47.4731 102.456C47.9211 102.68 48.6171 102.912 49.5611 103.152C50.5211 103.392 51.3131 103.64 51.9371 103.896C52.5611 104.152 53.0971 104.552 53.5451 105.096C54.0091 105.624 54.2491 106.328 54.2651 107.208C54.2651 107.976 54.0491 108.664 53.6171 109.272C53.2011 109.88 52.5931 110.36 51.7931 110.712C51.0091 111.048 50.0891 111.216 49.0331 111.216ZM62.1112 111.216C61.0232 111.216 60.0472 111.024 59.1832 110.64C58.3192 110.24 57.6312 109.704 57.1192 109.032C56.6232 108.36 56.3512 107.616 56.3032 106.8H59.6872C59.7512 107.312 59.9992 107.736 60.4312 108.072C60.8792 108.408 61.4312 108.576 62.0872 108.576C62.7272 108.576 63.2232 108.448 63.5752 108.192C63.9432 107.936 64.1272 107.608 64.1272 107.208C64.1272 106.776 63.9032 106.456 63.4552 106.248C63.0232 106.024 62.3272 105.784 61.3672 105.528C60.3752 105.288 59.5592 105.04 58.9192 104.784C58.2952 104.528 57.7512 104.136 57.2872 103.608C56.8392 103.08 56.6152 102.368 56.6152 101.472C56.6152 100.736 56.8232 100.064 57.2392 99.456C57.6712 98.848 58.2792 98.368 59.0632 98.016C59.8632 97.664 60.7992 97.488 61.8712 97.488C63.4552 97.488 64.7192 97.888 65.6632 98.688C66.6072 99.472 67.1272 100.536 67.2232 101.88H64.0072C63.9592 101.352 63.7352 100.936 63.3352 100.632C62.9512 100.312 62.4312 100.152 61.7752 100.152C61.1672 100.152 60.6952 100.264 60.3592 100.488C60.0392 100.712 59.8792 101.024 59.8792 101.424C59.8792 101.872 60.1032 102.216 60.5512 102.456C60.9992 102.68 61.6952 102.912 62.6392 103.152C63.5992 103.392 64.3912 103.64 65.0152 103.896C65.6392 104.152 66.1752 104.552 66.6232 105.096C67.0872 105.624 67.3272 106.328 67.3432 107.208C67.3432 107.976 67.1272 108.664 66.6952 109.272C66.2792 109.88 65.6712 110.36 64.8712 110.712C64.0872 111.048 63.1672 111.216 62.1112 111.216ZM73.4613 108.336H78.9813V111H70.1013V94.248H73.4613V108.336ZM82.8209 96.12C82.2289 96.12 81.7329 95.936 81.3329 95.568C80.9489 95.184 80.7569 94.712 80.7569 94.152C80.7569 93.592 80.9489 93.128 81.3329 92.76C81.7329 92.376 82.2289 92.184 82.8209 92.184C83.4129 92.184 83.9009 92.376 84.2849 92.76C84.6849 93.128 84.8849 93.592 84.8849 94.152C84.8849 94.712 84.6849 95.184 84.2849 95.568C83.9009 95.936 83.4129 96.12 82.8209 96.12ZM84.4769 97.704V111H81.1169V97.704H84.4769ZM95.1646 97.512C96.7486 97.512 98.0286 98.016 99.0046 99.024C99.9806 100.016 100.469 101.408 100.469 103.2V111H97.1086V103.656C97.1086 102.6 96.8446 101.792 96.3166 101.232C95.7886 100.656 95.0686 100.368 94.1566 100.368C93.2286 100.368 92.4926 100.656 91.9486 101.232C91.4206 101.792 91.1566 102.6 91.1566 103.656V111H87.7966V97.704H91.1566V99.36C91.6046 98.784 92.1726 98.336 92.8606 98.016C93.5646 97.68 94.3326 97.512 95.1646 97.512ZM116.024 104.064C116.024 104.544 115.992 104.976 115.928 105.36H106.208C106.288 106.32 106.624 107.072 107.216 107.616C107.808 108.16 108.536 108.432 109.4 108.432C110.648 108.432 111.536 107.896 112.064 106.824H115.688C115.304 108.104 114.568 109.16 113.48 109.992C112.392 110.808 111.056 111.216 109.472 111.216C108.192 111.216 107.04 110.936 106.016 110.376C105.008 109.8 104.216 108.992 103.64 107.952C103.08 106.912 102.8 105.712 102.8 104.352C102.8 102.976 103.08 101.768 103.64 100.728C104.2 99.688 104.984 98.888 105.992 98.328C107 97.768 108.16 97.488 109.472 97.488C110.736 97.488 111.864 97.76 112.856 98.304C113.864 98.848 114.64 99.624 115.184 100.632C115.744 101.624 116.024 102.768 116.024 104.064ZM112.544 103.104C112.528 102.24 112.216 101.552 111.608 101.04C111 100.512 110.256 100.248 109.376 100.248C108.544 100.248 107.84 100.504 107.264 101.016C106.704 101.512 106.36 102.208 106.232 103.104H112.544Z" fill="black"/>
            <path fill-rule="evenodd" clip-rule="evenodd" d="M77.8186 0.951131C70.717 2.47996 62.7945 8.21857 58.3096 13.415C51.1781 21.6771 47.4048 34.1261 48.8725 44.5474C49.9331 52.0765 54.7843 62.8742 56.0294 61.5841C57.8971 60.9391 64.3223 56.1516 64.1226 55.7788C60.9675 49.8995 59.1508 45.2189 59.1422 39.653C59.5914 31.3069 61.6324 26.1074 67.3644 19.0526C73.2854 13.0793 80.0984 10.5308 88.402 10.6266C110.38 10.8797 122.271 34.2527 113.304 53.1987C105.728 67.3156 88.9557 72.7781 74.7059 65.4543C72.8118 64.4813 70.9706 63.5192 70.7129 63.716C70.3329 63.5273 64.9997 70.6613 64.9997 71.3584C64.9997 72.0921 69.4106 74.6019 73.6286 76.2681C95.2779 84.8192 119.479 72.5544 125.824 49.8168C127.267 44.6455 127.405 35.2245 126.112 30.2082C123.875 21.53 117.604 12.2137 110.814 7.40147C101.242 0.618625 88.8468 -1.42306 77.8186 0.951131Z" fill="white"/>                </svg>